<svg width="24" height="24" viewBox="0 0 24 24" fill="none" xmlns="http://www.w3.org/2000/svg">
<path fill-rule="evenodd" clip-rule="evenodd" d="M18.064 7H5.93597C5.40897 7 4.97297 7.408 4.93797 7.933L4.14197 19.867C4.06497 21.021 4.98097 22 6.13797 22H17.862C19.019 22 19.935 21.021 19.858 19.867L19.062 7.933C19.027 7.408 18.591 7 18.064 7Z" stroke="#FF2D87" stroke-width="1.5" stroke-linecap="round" stroke-linejoin="round"/>
<path d="M15.001 9V5V5V5C15.001 3.343 13.658 2 12.001 2H12C10.343 2 9 3.343 9 5V5V5V9" stroke="#FF2D87" stroke-width="1.5" stroke-linecap="round" stroke-linejoin="round"/>
<path d="M10 12V13" stroke="#FF2D87" stroke-width="1.5" stroke-linecap="round" stroke-linejoin="round"/>
<path d="M14 12V13" stroke="#FF2D87" stroke-width="1.5" stroke-linecap="round" stroke-linejoin="round"/>
<path d="M15.5 16.688C15.5 16.688 14.187 18 12 18C9.812 18 8.5 16.688 8.5 16.688" stroke="#FF2D87" stroke-width="1.5" stroke-linecap="round" stroke-linejoin="round"/>
</svg>
