<svg width="118" height="118" viewBox="0 0 118 118" fill="none" xmlns="http://www.w3.org/2000/svg">
<path d="M34.4167 49.1671C36.3588 46.7825 39.0138 45.4305 41.7917 45.4305C44.5697 45.4305 47.1509 46.7825 49.1667 49.1671" stroke="#F53232" stroke-width="2" stroke-linecap="round" stroke-linejoin="round"/>
<path d="M68.8333 49.1671C70.7753 46.7825 73.4303 45.4305 76.2083 45.4305C78.9862 45.4305 81.5674 46.7825 83.5833 49.1671" stroke="#F53232" stroke-width="2" stroke-linecap="round" stroke-linejoin="round"/>
<path d="M90.2894 27.7105C107.57 44.9912 107.57 73.0088 90.2894 90.2894C73.0087 107.57 44.9911 107.57 27.7105 90.2894C10.4298 73.0087 10.4298 44.9911 27.7105 27.7105C44.9912 10.4298 73.0088 10.4298 90.2894 27.7105" stroke="#F53232" stroke-width="2" stroke-linecap="round" stroke-linejoin="round"/>
<path d="M76.2084 78.6666C76.2084 78.6666 69.7528 72.216 59.0001 72.216C48.2424 72.216 41.7917 78.6666 41.7917 78.6666" stroke="#F53232" stroke-width="2" stroke-linecap="round" stroke-linejoin="round"/>
</svg>
