<svg width="24" height="24" viewBox="0 0 24 24" fill="none" xmlns="http://www.w3.org/2000/svg">
<path fill-rule="evenodd" clip-rule="evenodd" d="M18.064 7H5.936C5.409 7 4.973 7.408 4.938 7.933L4.142 19.867C4.065 21.021 4.981 22 6.138 22H17.862C19.019 22 19.935 21.021 19.858 19.867L19.062 7.933C19.027 7.408 18.591 7 18.064 7Z" stroke="#AEC2EA" stroke-width="1.5" stroke-linecap="round" stroke-linejoin="round"/>
<path d="M12 12V18.5" stroke="#AEC2EA" stroke-width="1.5" stroke-linecap="round"/>
<path d="M8.75 15.25L15.25 15.25" stroke="#AEC2EA" stroke-width="1.5" stroke-linecap="round"/>
<path d="M15.001 9V5V5V5C15.001 3.343 13.658 2 12.001 2H12C10.343 2 9 3.343 9 5V5V5V9" stroke="#AEC2EA" stroke-width="1.5" stroke-linecap="round" stroke-linejoin="round"/>
</svg>
