<svg width="25" height="24" viewBox="0 0 25 24" fill="none" xmlns="http://www.w3.org/2000/svg">
    <path d="M14.6218 9.87999C15.7928 11.051 15.7928 12.952 14.6218 14.125C13.4508 15.296 11.5498 15.296 10.3768 14.125C9.20579 12.954 9.20579 11.053 10.3768 9.87999C11.5498 8.70699 13.4498 8.70699 14.6218 9.87999" stroke="#2967FF" stroke-width="1.5" stroke-linecap="round" stroke-linejoin="round"/>
    <path fill-rule="evenodd" clip-rule="evenodd" d="M3.5 12C3.5 11.341 3.652 10.689 3.946 10.088V10.088C5.461 6.991 8.809 5 12.5 5C16.191 5 19.539 6.991 21.054 10.088V10.088C21.348 10.689 21.5 11.341 21.5 12C21.5 12.659 21.348 13.311 21.054 13.912V13.912C19.539 17.009 16.191 19 12.5 19C8.809 19 5.461 17.009 3.946 13.912V13.912C3.652 13.311 3.5 12.659 3.5 12Z" stroke="#2967FF" stroke-width="1.5" stroke-linecap="round" stroke-linejoin="round"/>
</svg>
